<?xml version="1.0" standalone="no"?>
<!DOCTYPE svg PUBLIC "-//W3C//DTD SVG 20010904//EN"
 "http://www.w3.org/TR/2001/REC-SVG-20010904/DTD/svg10.dtd">
<svg version="1.0" xmlns="http://www.w3.org/2000/svg"
 width="865.000000pt" height="865.000000pt" viewBox="0 0 865.000000 865.000000"
 preserveAspectRatio="xMidYMid meet">
<metadata>
Created by potrace 1.11, written by Peter Selinger 2001-2013
</metadata>
<g transform="translate(0.000000,865.000000) scale(0.100000,-0.100000)"
fill="#000000" stroke="none">
<path d="M6956 8633 c-1 -2 -177 -5 -392 -8 -405 -6 -552 -11 -594 -19 -42 -8
-94 -15 -156 -21 -32 -4 -70 -8 -84 -11 -14 -2 -43 -7 -65 -9 -22 -3 -53 -7
-70 -9 -16 -2 -52 -7 -80 -11 -27 -3 -66 -8 -85 -11 -19 -2 -55 -7 -80 -10
-25 -2 -56 -7 -70 -9 -14 -2 -47 -7 -75 -10 -27 -4 -67 -10 -87 -15 -23 -5
-38 -4 -38 2 0 5 -6 6 -12 1 -14 -8 -20 -9 -93 -18 -27 -4 -61 -8 -75 -10 -14
-2 -43 -6 -65 -10 -23 -3 -52 -7 -65 -10 -13 -2 -29 0 -36 6 -6 5 -16 9 -20 8
-5 -1 -12 0 -16 1 -5 1 -11 3 -15 4 -5 1 -35 10 -68 20 -33 10 -68 20 -77 21
-9 2 -26 9 -37 15 -12 6 -21 8 -21 5 0 -3 -10 -1 -21 6 -12 6 -36 13 -53 16
-17 3 -52 13 -77 23 -40 15 -51 15 -78 4 -17 -7 -31 -11 -31 -9 0 3 -29 -8
-135 -50 -11 -4 -24 -9 -30 -11 -32 -8 -192 -68 -199 -75 -6 -5 -17 -9 -25 -9
-9 0 -50 -13 -91 -29 -97 -38 -113 -44 -122 -46 -5 -2 -9 -3 -10 -5 -2 -1 -10
-3 -18 -5 -14 -4 -138 -49 -170 -62 -8 -3 -19 -7 -25 -9 -11 -3 -392 -142
-415 -151 -8 -4 -40 -16 -71 -27 -51 -19 -85 -44 -204 -151 -12 -11 -55 -49
-95 -85 -40 -36 -83 -74 -95 -85 -13 -11 -53 -47 -90 -80 -38 -33 -73 -64 -79
-70 -6 -5 -47 -41 -91 -80 -44 -38 -100 -89 -125 -112 -42 -40 -81 -63 -190
-111 -25 -11 -162 -72 -305 -135 -143 -63 -291 -130 -330 -147 -38 -17 -89
-40 -112 -51 -24 -10 -45 -19 -47 -19 -2 0 -48 -20 -102 -46 -55 -25 -110 -50
-124 -56 -14 -5 -38 -16 -55 -24 -16 -7 -82 -36 -145 -64 -63 -28 -128 -57
-145 -65 -16 -7 -68 -30 -115 -50 -47 -21 -91 -42 -97 -47 -7 -6 -13 -7 -13
-2 0 5 -4 2 -10 -6 -5 -8 -6 -17 -2 -20 5 -3 43 -50 85 -105 75 -97 87 -112
115 -147 12 -16 8 -20 -45 -44 -32 -15 -59 -29 -61 -30 -3 -2 372 -489 388
-504 3 -3 25 -32 50 -65 25 -33 47 -62 50 -65 3 -3 67 -84 142 -181 148 -191
139 -173 249 -479 28 -80 85 -237 126 -350 81 -225 80 -222 82 -232 1 -4 10
-28 21 -53 11 -25 20 -49 21 -53 1 -4 6 -18 11 -32 5 -14 11 -32 13 -40 7 -28
49 -135 55 -140 3 -3 17 -21 30 -40 13 -19 27 -37 30 -40 3 -3 21 -25 40 -50
19 -25 38 -46 42 -48 5 -2 8 -8 8 -13 0 -5 7 -17 14 -26 8 -10 51 -65 95 -123
44 -58 84 -110 88 -115 5 -6 35 -46 68 -90 33 -44 62 -82 65 -85 3 -3 17 -21
30 -40 13 -19 27 -37 30 -40 3 -3 59 -75 123 -160 64 -85 136 -176 159 -201
24 -25 77 -83 118 -129 41 -46 84 -94 95 -106 11 -12 54 -59 95 -105 41 -45
91 -100 110 -120 19 -21 50 -55 69 -76 19 -21 70 -78 115 -127 45 -49 86 -94
91 -100 60 -68 184 -205 200 -222 25 -26 169 -185 212 -233 17 -20 47 -53 66
-73 18 -20 54 -63 78 -95 24 -32 49 -63 54 -69 6 -6 21 -26 35 -44 14 -18 71
-92 127 -164 57 -72 113 -144 125 -161 13 -16 33 -40 45 -52 12 -13 20 -23 18
-23 -3 0 2 -8 10 -17 7 -10 34 -43 58 -73 24 -30 71 -90 105 -132 34 -43 62
-80 62 -83 0 -3 10 -17 23 -31 39 -43 51 -58 97 -119 44 -60 66 -88 85 -109 6
-6 22 -27 35 -46 14 -19 32 -44 42 -55 38 -45 54 -65 73 -91 11 -15 49 -64 85
-110 36 -45 88 -111 115 -148 28 -36 54 -65 58 -66 5 0 11 9 14 20 3 11 9 20
14 20 5 0 9 6 9 14 0 8 6 21 13 28 7 7 27 38 43 68 17 30 58 100 91 155 33 55
106 179 163 275 57 96 143 242 192 323 48 82 88 150 88 152 0 2 12 21 26 42
14 21 30 47 35 58 5 11 27 49 49 84 22 34 40 64 40 66 0 2 23 41 51 87 28 45
60 99 70 118 11 19 28 49 39 65 11 17 24 39 29 50 23 47 61 99 141 191 103
118 134 153 158 179 10 11 52 58 93 105 41 46 79 90 84 96 6 6 39 44 75 84 36
41 85 97 110 125 25 28 72 82 105 119 103 118 105 119 185 163 42 24 101 57
195 113 188 111 258 150 266 150 4 0 9 3 11 8 2 6 130 82 270 160 20 12 54 32
75 45 21 13 45 27 53 30 8 4 31 17 50 29 19 11 60 34 90 51 30 17 57 34 60 38
3 4 15 12 26 16 11 4 93 51 182 103 182 106 164 80 142 210 -15 87 -17 100
-35 195 -10 50 -18 99 -20 110 -4 31 -14 85 -25 135 -7 35 -56 313 -95 535
-20 117 -45 236 -54 252 -24 46 -52 135 -66 213 -10 51 -41 149 -79 245 -35
88 -99 248 -141 355 -43 107 -83 209 -90 225 -78 181 -195 494 -194 519 1 17
-2 159 -6 316 -4 157 -8 386 -10 510 -9 584 -19 1004 -24 1031 0 4 -20 6 -43
5 l-43 -1 -2 50 c-1 28 -2 104 -3 171 l-2 121 -205 -1 c-112 -1 -206 -2 -207
-3z"/>
</g>
</svg>
